<svg xmlns="http://www.w3.org/2000/svg" xmlns:xlink="http://www.w3.org/1999/xlink" version="1.1" preserveAspectRatio="xMidYMid meet" viewBox="0 0 3000 550" width="3000" height="550"><defs><path d="M0 0L3000 0L3000 495L0 495L0 0Z" id="b5X3tnb3m"/><path d="M2821.5 487C2821.5 520.67 2189.36 548 1410.75 548C632.14 548 0 520.67 0 487C0 453.33 632.14 426 1410.75 426C2189.36 426 2821.5 453.33 2821.5 487Z" id="ab31HE9Uwz"/><path d="M182.15 452.47C182.15 473.18 133.95 490 74.58 490C15.2 490 -33 473.18 -33 452.47C-33 431.76 15.2 414.94 74.58 414.94C133.95 414.94 182.15 431.76 182.15 452.47Z" id="b6tFtg9IhL"/><path d="M1850 458.97C1850 484.89 1786.86 505.94 1709.09 505.94C1631.32 505.94 1568.18 484.89 1568.18 458.97C1568.18 433.05 1631.32 412 1709.09 412C1786.86 412 1850 433.05 1850 458.97Z" id="b2KKuGq5fS"/><path d="M3000 458.97C3000 489.72 2832.99 514.68 2627.27 514.68C2421.56 514.68 2254.55 489.72 2254.55 458.97C2254.55 428.22 2421.56 403.26 2627.27 403.26C2832.99 403.26 3000 428.22 3000 458.97Z" id="f2ukpZmTh"/></defs><g><g><g><use xlink:href="#b5X3tnb3m" opacity="1" fill="#1d5297" fill-opacity="1"/><g><use xlink:href="#b5X3tnb3m" opacity="1" fill-opacity="0" stroke="#1d5297" stroke-width="1" stroke-opacity="1"/></g></g><g><use xlink:href="#ab31HE9Uwz" opacity="1" fill="#1d5297" fill-opacity="1"/></g><g><use xlink:href="#b6tFtg9IhL" opacity="1" fill="#1d5297" fill-opacity="1"/></g><g><use xlink:href="#b2KKuGq5fS" opacity="1" fill="#1d5297" fill-opacity="1"/></g><g><use xlink:href="#f2ukpZmTh" opacity="1" fill="#1d5297" fill-opacity="1"/></g></g></g></svg>