<svg xmlns="http://www.w3.org/2000/svg" width="41" height="41" viewBox="0 0 41 41">
<defs><style>
.a7,
.g7{fill:none;}
.a7{stroke:#2e578b;stroke-miterlimit:10;stroke-width:2px;}
.b7{fill:#ff8c4e;}
.c7{fill:#ff7c3b;}
.c7,
.d7{stroke:#fff;stroke-width:0.5px;}
.d7{fill:#ff6a17;}
.e7,
.f7{stroke:none;}
.f7{fill:#fff;}
</style></defs><g transform="translate(-327 -727)"><g transform="translate(65 538)"><rect class="a7" width="34" height="36" transform="translate(263 190)"/><line class="a7" x2="34" transform="translate(263 202)"/><line class="a7" x2="34" transform="translate(263 214)"/><line class="a7" x2="8" transform="translate(284 220)"/><line class="a7" x2="8" transform="translate(284 208)"/><line class="a7" x2="8" transform="translate(284 196)"/><line class="a7" x2="4" transform="translate(268 220)"/><line class="a7" x2="4" transform="translate(268 208)"/><line class="a7" x2="4" transform="translate(268 196)"/></g><g class="b7" transform="translate(348 754)"><path class="e7" d="M 5.75 13.75 L 0.25 13.75 L 0.25 0.25 L 5.75 0.25 L 5.75 13.75 Z"/><path class="f7" d="M 0.5 0.5 L 0.5 13.5 L 5.5 13.5 L 5.5 0.5 L 0.5 0.5 M 0 0 L 6 0 L 6 14 L 0 14 L 0 0 Z"/></g><g class="c7" transform="translate(354 751)"><rect class="e7" width="7" height="17"/><rect class="g7" x="0.25" y="0.25" width="6.5" height="16.5"/></g><g class="d7" transform="translate(361 747)"><rect class="e7" width="7" height="21"/><rect class="g7" x="0.25" y="0.25" width="6.5" height="20.5"/></g></g></svg>