<svg xmlns="http://www.w3.org/2000/svg" xmlns:xlink="http://www.w3.org/1999/xlink" width="18" height="18" viewBox="0 0 18 18">
  <defs><style>
    .a10{fill:none;}
    .b10{clip-path:url(#a10);}
    .c10{fill:#9eb8dc;}
  </style><clipPath id="a"><rect class="a10" width="18" height="18"/></clipPath></defs><g class="b10" transform="translate(0 0)"><path class="c10" d="M14-328a9,9,0,0,0-9,9,9,9,0,0,0,9,9,9,9,0,0,0,9-9A9,9,0,0,0,14-328Zm0,16.2A7.2,7.2,0,0,1,6.8-319a7.2,7.2,0,0,1,7.2-7.2,7.2,7.2,0,0,1,7.2,7.2A7.2,7.2,0,0,1,14-311.8Z" transform="translate(-5 328)"/></g></svg>